<svg xmlns="http://www.w3.org/2000/svg" version="1.1" viewBox="-5.0 -10.0 110.0 135.0">
 <path d="m87.301 64.16c0 0.40625-0.16016 0.79688-0.44922 1.0859l-23.266 23.273c-2.0547 2.0547-4.4609 3.1992-7.3633 3.4961-0.042968 0.003906-0.089844 0.007813-0.13281 0.007813l-25.562 0.41016-3.7461 5.8594c-0.28906 0.45703-0.78516 0.70703-1.2891 0.70703-0.28125 0-0.56641-0.078125-0.82422-0.24219-0.71484-0.45703-0.92188-1.4023-0.46484-2.1172l4.1875-6.5547c0.27734-0.43359 0.75391-0.69922 1.2656-0.70703l26.316-0.42188c2.1719-0.23438 3.9023-1.0664 5.4453-2.6055l22.184-22.191-2.5078-2.5039c-0.51562-0.51562-1.3164-0.625-1.8984-0.625h-0.003906c-1.4688 0-3.1602 0.66797-4.1172 1.6289l-15.328 15.328c-1.2461 1.4023-3.0234 2.2188-4.9297 2.2188h-11.332c-0.84766 0-1.5312-0.6875-1.5312-1.5312 0-0.84766 0.6875-1.5312 1.5312-1.5312h11.336c1.0352 0 2-0.44922 2.6719-1.2227 0.5625-0.64062 0.87109-1.4648 0.87109-2.3203 0-1.957-1.5898-3.5508-3.5469-3.5508l-24.457-0.007812c-4.0898 0-5.3359 1.9961-7.3984 5.3086-0.22266 0.35547-0.44531 0.71875-0.68359 1.0859l-6.7539 10.594c-0.45313 0.71484-1.4023 0.92578-2.1172 0.46875-0.71484-0.45312-0.92578-1.4023-0.46875-2.1172l6.7539-10.598c0.23047-0.35938 0.44922-0.71484 0.66406-1.0586 2.1641-3.4727 4.2109-6.75 10-6.75h24.457c3.1445 0 5.7812 2.207 6.4492 5.1562l11.641-11.641c1.5352-1.5352 4.0039-2.5273 6.2852-2.5273h0.003906c1.6641 0 3.0703 0.52734 4.0625 1.5234l3.5898 3.5859c0.29688 0.28906 0.45703 0.67969 0.45703 1.0859zm-13.055-42.066c0.47266 0.27344 0.76562 0.78125 0.76562 1.3281v26.711c0 0.54688-0.29297 1.0547-0.76562 1.3281l-23.133 13.355c-0.23828 0.13672-0.50391 0.20312-0.76562 0.20312-0.26562 0-0.52734-0.066406-0.76562-0.20312l-23.137-13.359c-0.47266-0.27344-0.76562-0.78125-0.76562-1.3281v-26.707c0-0.54688 0.29297-1.0547 0.76562-1.3281l23.133-13.359c0.47266-0.27344 1.0586-0.27344 1.5312 0zm-15.449-5.3789-6.1055 3.5234c-5.1641 2.9805-10.328 5.9609-15.492 8.9453v12.816l3.168 1.8086v-11.914c0-0.54688 0.29297-1.0547 0.76562-1.3281l20.836-12.023zm-28.516 6.7031 5.3867 3.1094c5.1641-2.9844 10.328-5.9648 15.492-8.9453l4.5742-2.6406-5.3867-3.1094zm18.531 14.246-5.3828-3.1094v11.895c0 0.54688-0.28906 1.0508-0.76172 1.3242-0.23828 0.13672-0.50391 0.20703-0.76953 0.20703-0.26172 0-0.52344-0.066407-0.76172-0.20312l-6.2344-3.5586c-0.47656-0.27344-0.77344-0.78125-0.77344-1.332l0.003906-13.703-5.3867-3.1094v23.172l20.07 11.586zm21.602-14.242-5.3828-3.1055-20.07 11.582 5.3828 3.1133zm1.5352 2.6523-20.07 11.59v23.172l20.07-11.59zm-51.699-8.2695c-0.375-0.39844-0.50391-0.96875-0.34766-1.4922l3.457-11.328c0.16016-0.52344 0.58594-0.92188 1.1211-1.0469 0.53125-0.12109 1.0938 0.046875 1.4648 0.44531l3.2812 3.5156c6.1523-4.5156 13.422-6.8984 21.121-6.8984 19.727 0 35.777 16.051 35.777 35.777 0 5.1484-1.0703 10.121-3.1875 14.777-0.25781 0.56641-0.8125 0.89844-1.3984 0.89844-0.21094 0-0.42578-0.042969-0.63281-0.13672-0.76953-0.35156-1.1133-1.2578-0.76172-2.0273 1.9336-4.2539 2.9102-8.8008 2.9102-13.512 0-18.039-14.676-32.715-32.715-32.715-6.9141 0-13.449 2.1016-19.008 6.0938l2.6914 2.8828c0.375 0.39844 0.50391 0.96875 0.34766 1.4922-0.16016 0.52344-0.58594 0.92188-1.1211 1.0469l-11.539 2.668c-0.11328 0.027344-0.23047 0.039062-0.34375 0.039062-0.41797 0.003906-0.82422-0.16797-1.1172-0.48047zm3.3594-3.1367 6.3672-1.4727-4.4609-4.7773z"/>
<text x="0.0" y="117.5" font-size="5.0" font-weight="bold" font-family="Arbeit Regular, Helvetica, Arial-Unicode, Arial, Sans-serif" fill="#000000">Created by kliwir art</text><text x="0.0" y="122.5" font-size="5.0" font-weight="bold" font-family="Arbeit Regular, Helvetica, Arial-Unicode, Arial, Sans-serif" fill="#000000">from Noun Project</text></svg>