<svg xmlns="http://www.w3.org/2000/svg" version="1.1" viewBox="-5.0 -10.0 110.0 135.0">
 <path d="m9.0664 76.207h-5.7344c-1.2656 0-2.2969-1.0273-2.2969-2.2969v-46.723c0-1.2656 1.0273-2.2969 2.2969-2.2969h41.957c0.97266-1.9141 2.2383-3.6523 3.7422-5.1562 3.6602-3.6602 8.7148-5.9219 14.297-5.9219s10.637 2.2617 14.297 5.9219 5.9219 8.7148 5.9219 14.297c0 0.36719-0.011719 0.73828-0.03125 1.1016h0.39844c0.58984 0 1.1758 0.22656 1.6211 0.67188l12.73 12.73c0.42969 0.41797 0.69141 1 0.69141 1.6445v23.727c0 1.2695-1.0273 2.2969-2.2969 2.2969h-3.6133c-0.46875 2.4688-1.6758 4.6758-3.3828 6.3828-2.2227 2.2227-5.293 3.5977-8.6836 3.5977s-6.4609-1.375-8.6836-3.5977c-1.707-1.707-2.918-3.9141-3.3828-6.3828h-35.738c-0.46875 2.4688-1.6758 4.6758-3.3828 6.3828-2.2188 2.2227-5.293 3.5977-8.6836 3.5977s-6.4609-1.375-8.6836-3.5977c-1.707-1.707-2.9141-3.9141-3.3828-6.3828zm83.992-4.5898h1.3203v-20.484l-11.406-11.406h-0.23438c-0.96484 3.293-2.7461 6.2422-5.1133 8.6055-2.6953 2.6953-6.1484 4.6367-10.016 5.4688v17.812h1.3203c0.46875-2.4688 1.6758-4.6758 3.3828-6.3867 2.2227-2.2227 5.293-3.5977 8.6836-3.5977s6.4609 1.375 8.6836 3.5977c1.707 1.707 2.918 3.918 3.3828 6.3867zm-6.6289-3.1406c-1.3906-1.3906-3.3125-2.25-5.4375-2.25-2.1211 0-4.043 0.85938-5.4375 2.25-1.3906 1.3906-2.25 3.3125-2.25 5.4375s0.85937 4.043 2.25 5.4375c1.3906 1.3906 3.3125 2.25 5.4375 2.25s4.043-0.85937 5.4375-2.25c1.3906-1.3906 2.2539-3.3125 2.2539-5.4375 0-2.1211-0.85938-4.043-2.2539-5.4375zm-53.234 3.1406h29.828v-17.359c-5.4609-0.085937-10.398-2.3281-13.988-5.9219-3.6602-3.6602-5.9219-8.7148-5.9219-14.297 0-1.5664 0.17578-3.0898 0.51172-4.5508h-37.996v42.133h3.4414c0.46875-2.4688 1.6758-4.6758 3.3828-6.3867 2.2227-2.2227 5.293-3.5977 8.6836-3.5977s6.4609 1.375 8.6836 3.5977c1.707 1.707 2.9141 3.918 3.3828 6.3867zm-6.6289-3.1406c-1.3906-1.3906-3.3125-2.25-5.4375-2.25-2.1211 0-4.043 0.85938-5.4375 2.25-1.3906 1.3906-2.25 3.3125-2.25 5.4375s0.85938 4.043 2.25 5.4375c1.3906 1.3906 3.3125 2.25 5.4375 2.25s4.043-0.85937 5.4375-2.25c1.3906-1.3906 2.25-3.3125 2.25-5.4375 0-2.1211-0.85938-4.043-2.25-5.4375zm25.68-33.785c-0.89844-0.89844-0.89844-2.3477 0-3.2461 0.89844-0.89844 2.3477-0.89844 3.2461 0l5.3281 5.3281 10.344-10.344c0.89844-0.89844 2.3477-0.89844 3.2461 0 0.89844 0.89844 0.89844 2.3477 0 3.2461l-11.969 11.969c-0.89844 0.89844-2.3477 0.89844-3.2461 0l-6.9492-6.9492zm22.133-11.711c-2.8281-2.8281-6.7344-4.5781-11.051-4.5781s-8.2266 1.75-11.051 4.5781c-2.8281 2.8281-4.5781 6.7383-4.5781 11.055s1.75 8.2227 4.5781 11.051c2.8281 2.8281 6.7344 4.5781 11.051 4.5781s8.2266-1.75 11.051-4.5781c2.168-2.168 3.6992-4.9648 4.3008-8.0938l0.007812-0.023438c0.17969-0.94922 0.27734-1.9336 0.27734-2.9336 0-4.3164-1.75-8.2266-4.5781-11.055z"/>
<text x="0.0" y="117.5" font-size="5.0" font-weight="bold" font-family="Arbeit Regular, Helvetica, Arial-Unicode, Arial, Sans-serif" fill="#000000">Created by VERA</text><text x="0.0" y="122.5" font-size="5.0" font-weight="bold" font-family="Arbeit Regular, Helvetica, Arial-Unicode, Arial, Sans-serif" fill="#000000">from Noun Project</text></svg>