<svg xmlns="http://www.w3.org/2000/svg" version="1.1" viewBox="-5.0 -10.0 110.0 135.0">
 <path d="m74.43 14.223c4.3594 0 8.6719 1.4883 12.074 4.6289 8.0625 7.4375 8.3164 20.203 0.76562 27.98l-10.82 11.137-26.449 27.234-26.449-27.234-10.82-11.141c-7.5508-7.7734-7.2969-20.543 0.76562-27.98 3.4023-3.1406 7.7188-4.6289 12.074-4.6289 5.1914 0 10.441 2.1133 14.285 6.0664l10.148 10.445 10.148-10.445c3.8359-3.9531 9.0859-6.0625 14.277-6.0625m0-4.75c-6.6094 0-13.059 2.7383-17.691 7.5078l-6.7383 6.9375-6.7383-6.9375c-4.6328-4.7695-11.082-7.5078-17.691-7.5078-5.75 0-11.18 2.0898-15.297 5.8867-4.8242 4.4492-7.582 10.547-7.7617 17.176-0.18359 6.6406 2.2383 12.895 6.8125 17.605l10.82 11.141 26.449 27.234 3.4062 3.5078 3.4062-3.5078 26.449-27.234 10.824-11.145c4.5742-4.7109 6.9922-10.961 6.8125-17.605-0.18359-6.625-2.9375-12.727-7.7656-17.176-4.1133-3.793-9.5469-5.8828-15.297-5.8828z"/>
</svg>