<svg xmlns="http://www.w3.org/2000/svg" version="1.1" viewBox="-5.0 -10.0 110.0 135.0">
 <path d="m65.957 22.898v7.9336c0 4.3906-1.793 8.3789-4.6875 11.27-0.91016 0.91016-1.9336 1.7148-3.0469 2.3867 1.1094 0.67188 2.1328 1.4766 3.0469 2.3867 2.8906 2.8906 4.6875 6.8828 4.6875 11.27v7.9336h1.7773c1.2695 0 2.2969 1.0273 2.2969 2.2969s-1.0273 2.2969-2.2969 2.2969h-35.465c-1.2695 0-2.2969-1.0273-2.2969-2.2969s1.0273-2.2969 2.2969-2.2969h1.7773v-7.9336c0-4.3906 1.793-8.3789 4.6875-11.27 0.91016-0.91016 1.9336-1.7148 3.0469-2.3867-1.1094-0.67188-2.1328-1.4766-3.0469-2.3867-2.8906-2.8906-4.6875-6.8789-4.6875-11.27v-7.9336h-1.7773c-1.2695 0-2.2969-1.0273-2.2969-2.2969 0-1.2695 1.0273-2.2969 2.2969-2.2969h35.465c1.2695 0 2.2969 1.0273 2.2969 2.2969 0 1.2695-1.0273 2.2969-2.2969 2.2969zm-9.3281 69.977c5.75-2.6953 13.973-7.9844 21.07-17.984 7.168-10.094 13.176-24.984 14.379-46.844 0.12891-2.3281-0.19922-4.5039-0.96484-6.4961-0.76953-1.9961-1.9883-3.8242-3.6445-5.4609l-6.0703-5.9922c-1.5273-1.5078-3.2031-2.6406-5.0234-3.3828-1.8047-0.74219-3.7891-1.1133-5.9414-1.1133h-40.855c-2.1523 0-4.1367 0.37109-5.9414 1.1133-1.8164 0.74219-3.4961 1.875-5.0234 3.3828l-6.0703 5.9922c-1.6562 1.6367-2.875 3.4688-3.6445 5.4609-0.76953 1.9922-1.0938 4.168-0.96484 6.4961 1.2031 21.859 7.2109 36.75 14.379 46.844 7.0977 10 15.316 15.289 21.07 17.984 2.1719 1.0195 4.4023 1.5273 6.6289 1.5273 2.2305 0 4.457-0.51172 6.6289-1.5273zm24.801-15.332c-7.6641 10.801-16.598 16.539-22.863 19.477-2.8125 1.3164-5.6875 1.9766-8.5664 1.9766s-5.7578-0.66016-8.5664-1.9766c-6.2656-2.9375-15.199-8.6797-22.863-19.477-7.5977-10.703-13.961-26.387-15.223-49.25-0.16016-2.9766 0.26562-5.7891 1.2734-8.3984 1.0039-2.6055 2.5781-4.9805 4.7031-7.0781l6.0703-5.9922c1.9492-1.9258 4.1172-3.3789 6.4922-4.3516 2.3867-0.98047 4.9531-1.4727 7.6836-1.4727h40.855c2.7344 0 5.2969 0.49219 7.6836 1.4727 2.375 0.97656 4.543 2.4258 6.4922 4.3516l6.0703 5.9922c2.125 2.0977 3.6992 4.4727 4.7031 7.0781s1.4336 5.4219 1.2734 8.3984c-1.2578 22.859-7.625 38.543-15.223 49.25zm-20.066-11.457v-7.9336c0-3.1211-1.2773-5.9609-3.3398-8.0234s-4.8984-3.3398-8.0234-3.3398c-3.1211 0-5.9609 1.2773-8.0234 3.3398s-3.3398 4.8984-3.3398 8.0234v7.9336zm-22.727-43.188v7.9336c0 3.1211 1.2773 5.9609 3.3398 8.0234s4.8984 3.3398 8.0234 3.3398c3.1211 0 5.9648-1.2812 8.0234-3.3398 2.0625-2.0625 3.3398-4.8984 3.3398-8.0234v-7.9336z"/>
<text x="0.0" y="117.5" font-size="5.0" font-weight="bold" font-family="Arbeit Regular, Helvetica, Arial-Unicode, Arial, Sans-serif" fill="#000000">Created by YANDI RS</text><text x="0.0" y="122.5" font-size="5.0" font-weight="bold" font-family="Arbeit Regular, Helvetica, Arial-Unicode, Arial, Sans-serif" fill="#000000">from Noun Project</text></svg>