<svg xmlns="http://www.w3.org/2000/svg" xmlns:xlink="http://www.w3.org/1999/xlink" version="1.1" x="0px" y="0px" viewBox="0 0 100 125" style="enable-background:new 0 0 100 100;" xml:space="preserve"><g><path d="M83.2,30.8c0-2.1-0.1-4.2-0.1-6.1c0-1.5-1.2-2.8-2.8-2.8c-11.8,0-20.9-3.4-28.4-10.7c-1.1-1-2.8-1-3.9,0   c-7.5,7.3-16.5,10.7-28.4,10.7c-1.5,0-2.8,1.2-2.8,2.8c0,2,0,4-0.1,6.1c-0.4,19.9-0.9,47.1,32.3,58.6c0.3,0.1,0.6,0.2,0.9,0.2   s0.6-0.1,0.9-0.2C84,77.9,83.5,50.7,83.2,30.8z M50,83.9c-28.4-10.3-28-33-27.6-52.9c0-1.2,0-2.4,0.1-3.5   c11.1-0.5,20-3.8,27.6-10.4c7.6,6.6,16.5,10,27.6,10.4c0,1.1,0,2.3,0.1,3.5C78,50.9,78.4,73.5,50,83.9z"/><path d="M59.5,40.4L46.2,53.7L40.5,48c-1.1-1.1-2.8-1.1-3.9,0c-1.1,1.1-1.1,2.8,0,3.9l7.7,7.7c0.5,0.5,1.2,0.8,2,0.8   c0.7,0,1.4-0.3,2-0.8l15.3-15.3c1.1-1.1,1.1-2.8,0-3.9C62.4,39.3,60.6,39.3,59.5,40.4z"/></g><text x="0" y="115" fill="#000000" font-size="5px" font-weight="bold" font-family="'Helvetica Neue', Helvetica, Arial-Unicode, Arial, Sans-serif">Created by Shiva</text><text x="0" y="120" fill="#000000" font-size="5px" font-weight="bold" font-family="'Helvetica Neue', Helvetica, Arial-Unicode, Arial, Sans-serif">from the Noun Project</text></svg>