<svg xmlns:dc="http://purl.org/dc/elements/1.1/" xmlns:cc="http://creativecommons.org/ns#" xmlns:rdf="http://www.w3.org/1999/02/22-rdf-syntax-ns#" xmlns:svg="http://www.w3.org/2000/svg" xmlns="http://www.w3.org/2000/svg" xmlns:sodipodi="http://sodipodi.sourceforge.net/DTD/sodipodi-0.dtd" xmlns:inkscape="http://www.inkscape.org/namespaces/inkscape" version="1.1" x="0px" y="0px" viewBox="0 0 100 125"><g transform="translate(0,-952.36218)"><path style="text-indent:0;text-transform:none;direction:ltr;block-progression:tb;baseline-shift:baseline;color:#000000;enable-background:accumulate;" d="m 50,960.36221 c -7.7387,0 -14,6.2613 -14,14 l 0,7.99993 -11,0 c -0.62163,0.01 -0.94328,0.4437 -1,0.90625 l -5,60.00001 c -0.0521,0.5539 0.44366,1.0961 1,1.0937 l 60,0 c 0.55634,0 1.0521,-0.5398 1,-1.0937 l -5,-60.00001 c -0.0463,-0.49158 -0.50624,-0.90838 -1,-0.90625 l -11,0 0,-7.99993 c 0,-7.7387 -6.2613,-14 -14,-14 z m 0,2 c 6.6653,0 12,5.3347 12,12 l 0,7.99993 -24,0 0,-7.99993 c 0,-6.6653 5.3347,-12 12,-12 z m -24.0625,21.99993 10.0625,0 0,8.09375 c -2.27275,0.46834 -4,2.50039 -4,4.90625 0,2.74956 2.25041,4.99996 5,4.99996 2.74959,0 5,-2.2504 5,-4.99996 0,-2.40586 -1.72725,-4.43791 -4,-4.90625 l 0,-8.09375 24,0 0,8.09375 c -2.27275,0.46834 -4,2.50039 -4,4.90625 0,2.74956 2.25041,4.99996 5,4.99996 2.74959,0 5,-2.2504 5,-4.99996 0,-2.40586 -1.72725,-4.43791 -4,-4.90625 l 0,-8.09375 10.0625,0 4.84375,57.99996 -57.8125,0 z m 11.0625,10 c 1.66869,0 3,1.33135 3,3 0,1.66865 -1.33131,2.99996 -3,2.99996 -1.66869,0 -3,-1.33131 -3,-2.99996 0,-1.66865 1.33131,-3 3,-3 z m 26,0 c 1.66869,0 3,1.33135 3,3 0,1.66865 -1.33131,2.99996 -3,2.99996 -1.66869,0 -3,-1.33131 -3,-2.99996 0,-1.66865 1.33131,-3 3,-3 z" fill="#000000" fill-opacity="1" stroke="none" marker="none" visibility="visible" display="inline" overflow="visible"/></g></svg>